PathFileType	4	(X/Y/Z)	4_1_35_p1_0-148.trc
DataRate	CameraRate	NumFrames	NumMarkers	Units	OrigDataRate	OrigDataStartFrame	OrigNumFrames
60.0	60.0	7	27	m	60.0	55	149
Frame#	Time	RHip			RKnee			RAnkle			RBigToe			RSmallToe			RHeel			LHip			LKnee			LAnkle			LBigToe			LSmallToe			LHeel			Neck			Head			Nose			RShoulder			RElbow			RWrist			RThumb			RIndex			RPinky			LShoulder			LElbow			LWrist			LThumb			LIndex			LPinky			
		X1	Y1	Z1	X2	Y2	Z2	X3	Y3	Z3	X4	Y4	Z4	X5	Y5	Z5	X6	Y6	Z6	X7	Y7	Z7	X8	Y8	Z8	X9	Y9	Z9	X10	Y10	Z10	X11	Y11	Z11	X12	Y12	Z12	X13	Y13	Z13	X14	Y14	Z14	X15	Y15	Z15	X16	Y16	Z16	X17	Y17	Z17	X18	Y18	Z18	X19	Y19	Z19	X20	Y20	Z20	X21	Y21	Z21	X22	Y22	Z22	X23	Y23	Z23	X24	Y24	Z24	X25	Y25	Z25	X26	Y26	Z26	X27	Y27	Z27	
55	0.9166666666666666	0.36107029876993657	0.43627657948856113	0.7685697275669727	0.38003896662646863	0.45093106073022327	1.181452414973277	0.37085065657773414	0.5135893197982244	1.596459559559588	0.352773620626524	0.2690051948052815	1.576355616397756	0.41724286068055355	0.3449759838253818	1.6188112234683953	0.3595929004399842	0.5545275490425483	1.64846545610914	0.14972141806443687	0.44281633612833415	0.7705954416600661	0.15089915084628414	0.5036551687807959	1.1970961329732401	0.1927441277331392	0.5142160884859216	1.6009177739548839	0.17260850678146464	0.28693613107472427	1.6015682211623299	0.12423142400504081	0.31337103079797957	1.5816865209841655	0.21247862926592526	0.5783960737985283	1.664537863421779	0.21753111162423444	0.43899025949111103	0.23896067805733273	0.21031805208408366	0.4159989668589309	-0.0013725143678738833	0.20168340008532387	0.2958296439226004	0.11566538547025174	0.3728709379543428	0.372808602669786	0.31499313349750435	0.3143322033089642	0.17084935013504454	0.5151298605851544	0.3279343116549683	-0.003235011102436174	0.6702402750564708	0.3485583615669118	-0.14180557584761927	0.7206433634240295	0.34690504356414165	-0.14401288654647498	0.7458480628748891	0.3303965882296452	-0.043432498155072274	0.792543408359709	0.08946698832526732	0.4644504476950189	0.3328485213398462	0.0965967224681121	0.32176610837234415	0.5325858767607254	0.2231507861850441	0.1412915359921577	0.5974406690856128	0.2768939393896321	0.05962592973594998	0.6270213165172093	0.2608920222501767	0.01700175340135625	0.5921246052880424	0.26740265711352146	0.03884952717565376	0.6550138128106635
56	0.9333333333333333	0.36026914394889803	0.4375166220663023	0.7690815755451375	0.3759000968279468	0.4657605637372821	1.1894222635128942	0.3708531070920691	0.5135873048291009	1.5964309382068584	0.3527710291086122	0.26902821468996063	1.5763553300880686	0.41727231422628713	0.3450596980426375	1.6188470399071457	0.3591648796788418	0.5560436737314409	1.645067167693556	0.15029669914909768	0.4447025218765449	0.7726612733204075	0.15088345012467191	0.5034113840089643	1.1971550889519837	0.1926853619782131	0.5140189952515374	1.6009556064799957	0.17264164599797813	0.28698398931788605	1.6016855275512043	0.12420768252504966	0.313340754896331	1.5819231623367696	0.20892996084939194	0.5644164171936644	1.6560667854501367	0.21763261507906984	0.43895335785916106	0.23897127947175031	0.21087517042591655	0.4158396101360365	0.005418045264843144	0.20170522983556008	0.2958979776219628	0.11566436842147601	0.37292392469070396	0.3727586684980451	0.3150082870337307	0.3144240055417472	0.17099031374013865	0.5148622344830129	0.32799935953866055	-0.003178320288698831	0.6702477191764782	0.3512707934305741	-0.15124910087565202	0.7168686108262288	0.3463156145584017	-0.14505819564873304	0.7492146153825047	0.32980459337548734	-0.043229961201078956	0.796656877399844	0.08952263745575473	0.4643526353533745	0.33289657237335984	0.09714568564899702	0.32252030342541954	0.5367831025009793	0.22672364069263873	0.15119425110007814	0.6045894180131473	0.2757537603313647	0.051562154394676776	0.6306139828520199	0.25914376643730747	0.033204199757774534	0.5981188961379844	0.2697625948998439	0.03923762804898431	0.6587286299098017
57	0.95	0.36062445560121054	0.4362925563600917	0.7726616319649958	0.3758181847818652	0.46590546877523625	1.189506412109651	0.37088480799843326	0.5136669675914444	1.5965064083094151	0.3527865923263832	0.2691636876446377	1.5764374161317853	0.41717956337517226	0.3450372847837976	1.6188111359870054	0.3593356619596137	0.5561584881085566	1.6450810993083675	0.15059590813808707	0.4435808624884021	0.7757830675460766	0.14569913190559497	0.5181874293752678	1.2050244756969344	0.1926909744107569	0.5139935977468307	1.6008754127783578	0.17321373126926307	0.2851107804791658	1.605596547678393	0.12954301272103305	0.31621343021030157	1.588481483310062	0.22186329472549757	0.5643613812342798	1.6551799107758922	0.21761502553193152	0.4388398640927597	0.238921848820654	0.21478757265338458	0.40353110471204096	0.0038689917652627013	0.2017646828738711	0.29597126026432846	0.11579220997481274	0.372978840624298	0.3725628707614181	0.3150651804942495	0.31446308229447506	0.17096940306624858	0.5151365696543942	0.32563482084625023	-0.010961517772559591	0.6703921533144007	0.35116851867720184	-0.15139661666799056	0.71730024208523	0.3469753803181468	-0.14455992232413245	0.7524488830245788	0.3302394869661554	-0.04272454172563237	0.8001321448087372	0.08963320894243075	0.46415189017566777	0.3327613491778858	0.09648215220509933	0.3219446601272428	0.5326408788463308	0.22275928647859142	0.14282538601476902	0.5930888268038598	0.2748279610194384	0.051476471982645655	0.6272976867768042	0.25924998656764453	0.03325421567537945	0.5982389389458751	0.2639426171384313	0.03684431272929904	0.650639540826143
58	0.9666666666666667	0.36043076082401576	0.43608257276603096	0.7727195218556402	0.3759702212799515	0.46590078040619015	1.189489136495625	0.3709149377790807	0.513672335618873	1.5965140580960655	0.35279091889501624	0.26906193363315745	1.5763351494935611	0.41806298141597914	0.34492137900477	1.6137042302157183	0.35943464352797705	0.5563069300582075	1.6451537355414847	0.15358588923425762	0.44380757127636217	0.7709749429981916	0.15089286681738479	0.5034875085121558	1.1972631588754086	0.1964025624867339	0.4992567920574165	1.5956067414553032	0.17175081036122242	0.28743870834511065	1.6061861763503662	0.1295737665359155	0.3161046422163515	1.588431321318585	0.22187912445406838	0.5642003996442311	1.6553667109417096	0.22166229205647495	0.4404200208393852	0.2390183811655519	0.21482074772086177	0.40354799973629984	0.0037527645744822955	0.20182322372668962	0.2958914708007199	0.11582066900724482	0.37301588109857914	0.37250398862049705	0.3150249301558731	0.317855183721961	0.15950917388399866	0.5116929443660516	0.32883651905739814	-0.021207686584930448	0.666154271586006	0.3474379131057715	-0.14233891084856726	0.7246472633721719	0.3461796797074807	-0.14513880384496422	0.749026519370864	0.33316088079195777	-0.053334367792959254	0.7980709311807755	0.08965790890668127	0.46413838991115686	0.3327349260277776	0.09605659606229258	0.32290489704761766	0.5291244581389034	0.22203560469445202	0.14260008273322622	0.5887919715892972	0.2732677957214788	0.05193788123452881	0.6186337672348785	0.2609441509740357	0.016611268554181935	0.5923528492382033	0.2633037635225687	0.043132675647147234	0.6430742674419692
59	0.9833333333333333	0.36045264541465055	0.43608948464264635	0.7729054234430783	0.37564349015638276	0.46737313812193676	1.1863805800611829	0.370917961355729	0.5136780288306383	1.596532131075514	0.3528093553496905	0.2689359285634432	1.57627088656574	0.41815963134051504	0.3448268606239566	1.613660863715549	0.3597204838892704	0.5544930684467495	1.6483180172851706	0.15387066242677774	0.442577188312274	0.7743085887328461	0.15129331828442516	0.5019864523173895	1.2007430741475114	0.19274547207152604	0.5141233219760855	1.6009607324098563	0.17264781334601237	0.28711526491893924	1.601722329645201	0.12859754722244987	0.31513497631199944	1.5826592215843864	0.21735687439787763	0.5619139013370199	1.654068402386493	0.22166749904580535	0.44044439266249824	0.23902190031357465	0.21786185214527862	0.4148153956131338	0.004867062297617803	0.2019453140752238	0.29576661404868576	0.115852409592744	0.37296354769235207	0.3725224310237056	0.31503134552055456	0.3253175393392782	0.17069324013218085	0.5152460679323781	0.328891857804771	-0.021443660375487825	0.6662053890618093	0.3508716678734249	-0.1510638725952693	0.7182273532008348	0.34578311812095	-0.14546461277831405	0.751989915635977	0.3295554819263025	-0.06097417823113035	0.7914949071538997	0.08968002601232729	0.46414582508859337	0.33266014269797767	0.0959498460144509	0.3228184621668091	0.5290047625709042	0.21966356659508757	0.14023628258645826	0.5756830826426255	0.27465772475020767	0.056638178175625	0.6027143100785499	0.2665078771749486	0.025370066077774422	0.6091745116671737	0.2609231572086665	0.04743955153728182	0.6266099282663052
60	1.0	0.3613165581838719	0.4368113268242086	0.77765173546684	0.37560791257215065	0.4676668640779162	1.1865218172730447	0.37090650926930374	0.5136706167926702	1.5965750767460647	0.35273321620222936	0.2688593680853883	1.5763815158909322	0.4140027899439751	0.3334135037800123	1.6062453691803522	0.3592752838830423	0.5563200503993563	1.6454156804036966	0.1539107701320273	0.44231075805326475	0.7743159724923903	0.15154564162334033	0.5003212003545453	1.2043518412796006	0.1937203303883302	0.5156475699236942	1.6067711425338609	0.17747399359758398	0.27184393610275587	1.5959968687695663	0.12522282599292256	0.31459034884016535	1.5872790494709355	0.21731808485399387	0.5624875436588125	1.6536852631525227	0.22171273771402938	0.44049981430826574	0.2390974821364979	0.21758060176235458	0.4142198926897413	0.0012758627841912883	0.20593597939781352	0.2843568604163928	0.11387220375140551	0.372825567976951	0.3724535337651341	0.3150706057936493	0.33032806453861285	0.17306103553358695	0.5191190304220068	0.3330478497369934	-0.0200778607462236	0.6666584435768301	0.3501591383277616	-0.15167879916374555	0.7200916823654864	0.34317331033038645	-0.15331378690846498	0.744894514328121	0.3313579859025112	-0.06287092686477873	0.7871572514736617	0.08958458125305749	0.4642687442095098	0.3326721098599569	0.09540231829110679	0.32247317214104165	0.5250704505252072	0.2186535283498141	0.13874387702074445	0.5718863761491111	0.28030553341761305	0.04517474261251418	0.5920274945759112	0.27208222587646036	0.017266263652409113	0.5933148535125947	0.25696798268079046	0.041831442468710914	0.6231696034446181
61	1.0166666666666666	0.36055879822798664	0.4361163713344419	0.7728900875016755	0.3715659658207132	0.4666427674212067	1.1861951372493622	0.3709293170952798	0.5136783841935283	1.5965342801123676	0.352793283579559	0.268908738371345	1.5763873475514252	0.4141302970869904	0.3336235579261985	1.6063224677733963	0.3590114280784835	0.5556881149059915	1.6448485594741136	0.15710721991801987	0.442513185768648	0.769370519015992	0.14744708017233135	0.4981235454278724	1.2035878898945027	0.19372118435473135	0.5157517156621093	1.6066721838621616	0.17298915861059877	0.28482825228768777	1.6053986062796237	0.12613560926530348	0.3143098159157261	1.582699252163378	0.21248825629152648	0.5788499401070217	1.6643242053404697	0.22170084245440447	0.4404996421712142	0.23910178342645824	0.21795095205137535	0.4147250064384082	0.004907655372248418	0.20598481179683503	0.28429816938002606	0.113883208949014	0.3728914431541067	0.37255661271362644	0.31501748780712535	0.3339608039004511	0.18293072355739834	0.5218976228202329	0.3334866413452458	-0.021265635746062123	0.6700851184206852	0.3476109249039191	-0.1445417391183147	0.7241835173032984	0.34437674414753866	-0.1532186995705643	0.7347738711287387	0.33260280016050486	-0.06493589538913978	0.780614796566718	0.08957778585617364	0.464261306342871	0.3326053583829336	0.09528429457236563	0.32246377305288976	0.5249297594657342	0.2117209791840465	0.12744121348240933	0.5684912473432775	0.2699409948575562	0.04686899102555035	0.5920319553707855	0.2769205851803989	0.020320383965577712	0.5952343290497207	0.2571875571007091	0.04245323947296703	0.616979198909782
